# xmcd
#
# Track frame offsets:
#	150
#	17964
#	34353
#	50569
#	66310
#	81072
#	98352
#	109919
#	126320
#	141982
#	159450
#	172653
#	187730
#	203965
#	219549
#
# Disc length: 3176 seconds
#
# Revision: 0
# Processed by: cddbd v1.5.2PL0 Copyright (c) Steve Scherf et al.
# Submitted via: audiograbber 1.83.01
#
DISCID=d00c660f
DTITLE=Keith Anderson - I'll Bring The Music
DYEAR=2015
DGENRE=Country
TTITLE0=I'll Bring The Music
TTITLE1=Cruise
TTITLE2=A Place In Heaven
TTITLE3=Wild Girls
TTITLE4=Your Town For Now
TTITLE5=Hard To Get Over
TTITLE6=Tight White Wife Beater (Accoustic)
TTITLE7=About To Be Loved By Me
TTITLE8=You Know Where To Find Me
TTITLE9=All I Wanna Do
TTITLE10=Pickup Truck
TTITLE11=Makin' Love
TTITLE12=Wake Up Lovin' You
TTITLE13=Absolutely Nothin'
TTITLE14=You Know Who You Are
EXTD=
EXTT0=
EXTT1=
EXTT2=
EXTT3=
EXTT4=
EXTT5=
EXTT6=
EXTT7=
EXTT8=
EXTT9=
EXTT10=
EXTT11=
EXTT12=
EXTT13=
EXTT14=
PLAYORDER=
